<?xml version="1.0" standalone="no"?>
<!DOCTYPE svg PUBLIC "-//W3C//DTD SVG 20010904//EN"
 "http://www.w3.org/TR/2001/REC-SVG-20010904/DTD/svg10.dtd">
<svg version="1.0" xmlns="http://www.w3.org/2000/svg"
 width="512.000000pt" height="565.000000pt" viewBox="0 0 512.000000 565.000000"
 preserveAspectRatio="xMidYMid meet">
<metadata>
Created by potrace 1.16, written by Peter Selinger 2001-2019
</metadata>
<g transform="translate(0.000000,565.000000) scale(0.100000,-0.100000)"
fill="#000000" stroke="none">
<path d="M1046 5634 c-168 -30 -367 -114 -505 -212 -276 -196 -468 -499 -526
-828 -13 -74 -15 -286 -15 -1504 0 -1553 -2 -1489 60 -1683 60 -186 155 -342
303 -494 147 -151 313 -255 512 -322 172 -57 217 -61 778 -61 l511 0 -136
-138 c-115 -117 -136 -144 -146 -183 -22 -88 29 -175 116 -198 95 -26 128 -2
463 336 260 262 287 292 297 334 13 51 5 90 -27 142 -29 47 -570 582 -608 601
-43 22 -120 20 -163 -3 -44 -23 -80 -90 -80 -146 0 -56 27 -95 153 -222 l102
-103 -215 1 c-118 0 -341 4 -495 9 -259 7 -287 10 -368 34 -297 88 -499 290
-594 593 l-28 88 0 1415 0 1415 28 88 c94 302 292 500 594 594 l88 28 1415 0
1415 0 88 -28 c302 -94 500 -292 594 -594 l28 -88 0 -1415 0 -1415 -28 -88
c-94 -303 -297 -505 -594 -593 -86 -25 -99 -26 -483 -35 -217 -5 -418 -13
-446 -19 -104 -22 -171 -114 -162 -224 6 -75 41 -126 109 -160 l53 -26 422 0
c462 0 514 5 687 60 190 61 360 167 509 317 190 193 308 419 353 680 23 129
22 2878 0 3007 -47 267 -171 501 -368 693 -152 148 -308 243 -494 303 -194 62
-129 60 -1692 59 -1189 -1 -1439 -3 -1505 -15z"/>
<path d="M2460 4350 c-50 -26 -87 -68 -105 -119 -13 -37 -15 -113 -15 -482 l0
-439 -439 0 c-479 0 -495 -2 -554 -58 -46 -44 -67 -94 -67 -162 0 -73 23 -125
75 -168 62 -50 79 -52 549 -52 l436 0 0 -439 c0 -479 2 -495 58 -554 44 -46
94 -67 162 -67 73 0 125 23 168 75 50 62 52 79 52 549 l0 436 436 0 c470 0
487 2 549 52 99 82 103 240 8 330 -59 56 -75 58 -554 58 l-439 0 0 436 c0 298
-4 449 -11 475 -15 50 -62 105 -110 129 -51 26 -150 26 -199 0z"/>
</g>
</svg>
