<?xml version="1.0" standalone="no"?>
<!DOCTYPE svg PUBLIC "-//W3C//DTD SVG 20010904//EN"
 "http://www.w3.org/TR/2001/REC-SVG-20010904/DTD/svg10.dtd">
<svg version="1.0" xmlns="http://www.w3.org/2000/svg"
 width="512.000000pt" height="565.000000pt" viewBox="0 0 512.000000 565.000000"
 preserveAspectRatio="xMidYMid meet">
<metadata>
Created by potrace 1.16, written by Peter Selinger 2001-2019
</metadata>
<g transform="translate(0.000000,565.000000) scale(0.100000,-0.100000)"
fill="#000000" stroke="none">
<path d="M1046 5634 c-168 -30 -367 -114 -505 -212 -276 -196 -468 -499 -526
-828 -13 -74 -15 -286 -15 -1504 0 -1553 -2 -1489 60 -1683 60 -186 155 -342
303 -494 147 -151 313 -255 512 -322 172 -57 217 -61 778 -61 l511 0 -136
-138 c-115 -117 -136 -144 -146 -183 -22 -88 29 -175 116 -198 95 -26 128 -2
463 336 260 262 287 292 297 334 13 51 5 90 -27 142 -29 47 -570 582 -608 601
-43 22 -120 20 -163 -3 -44 -23 -80 -90 -80 -146 0 -56 27 -95 153 -222 l102
-103 -215 1 c-118 0 -341 4 -495 9 -259 7 -287 10 -368 34 -297 88 -499 290
-594 593 l-28 88 0 1415 0 1415 28 88 c94 302 292 500 594 594 l88 28 1415 0
1415 0 88 -28 c302 -94 500 -292 594 -594 l28 -88 0 -1415 0 -1415 -28 -88
c-94 -303 -297 -505 -594 -593 -86 -25 -99 -26 -483 -35 -217 -5 -418 -13
-446 -19 -104 -22 -171 -114 -162 -224 6 -75 41 -126 109 -160 l53 -26 422 0
c462 0 514 5 687 60 190 61 360 167 509 317 190 193 308 419 353 680 23 129
22 2878 0 3007 -47 267 -171 501 -368 693 -152 148 -308 243 -494 303 -194 62
-129 60 -1692 59 -1189 -1 -1439 -3 -1505 -15z"/>
<path d="M2978 4401 c-94 -37 -163 -104 -209 -200 l-24 -51 -698 0 c-745 0
-750 0 -776 -48 -20 -38 -13 -96 15 -123 l26 -24 717 -3 716 -2 25 -52 c118
-248 424 -300 609 -103 32 35 66 83 76 108 l17 46 163 3 c157 3 164 4 189 27
19 18 26 35 26 63 0 90 -24 102 -224 108 l-158 5 -20 53 c-25 68 -100 145
-175 180 -77 36 -222 42 -295 13z"/>
<path d="M1805 3487 c-111 -37 -195 -112 -236 -212 l-23 -55 -116 0 c-110 0
-119 -1 -144 -25 -37 -35 -37 -105 0 -140 25 -24 34 -25 143 -25 l116 0 24
-55 c65 -151 205 -234 369 -222 140 11 243 83 304 213 l30 64 762 0 763 0 27
25 c21 19 26 33 26 70 0 37 -5 51 -26 70 l-27 25 -763 0 -762 0 -30 64 c-63
135 -166 205 -314 212 -53 3 -98 -1 -123 -9z"/>
<path d="M2859 2570 c-118 -21 -240 -118 -276 -220 l-18 -50 -626 -2 -627 -3
-26 -24 c-28 -27 -35 -85 -15 -123 25 -47 38 -48 686 -48 l608 0 18 -49 c24
-67 104 -153 175 -188 52 -26 67 -28 167 -28 101 0 114 2 163 28 29 15 71 44
93 64 43 39 99 126 99 156 0 16 18 17 240 17 304 0 330 8 330 108 0 28 -7 45
-26 63 -25 24 -28 24 -279 29 l-254 5 -31 62 c-74 148 -240 232 -401 203z"/>
</g>
</svg>
